<svg xmlns="http://www.w3.org/2000/svg" width="39" height="10" fill="none" viewBox="0 0 39 10">
  <path fill="#fff" fill-rule="evenodd" d="M5.127.333.886 9.996h5.077l.63-1.54h1.439l.63 1.54h5.588V8.82l.498 1.176h2.891l.498-1.201v1.2h11.624l1.413-1.5 1.324 1.5 5.97.013-4.255-4.817L38.468.333h-5.877l-1.376 1.473L29.933.333H17.288l-1.086 2.494L15.091.333h-5.067V1.47L9.46.333H5.127Zm.983 1.372h2.475l2.813 6.552V1.705h2.712l2.172 4.698 2.003-4.698h2.698V8.64h-1.642l-.013-5.433-2.393 5.433h-1.469L13.06 3.206v5.433H9.683l-.64-1.555h-3.46l-.638 1.553h-1.81L6.11 1.705Zm23.05 0h-6.675v6.93h6.571l2.118-2.297 2.042 2.297h2.134L32.248 5.19l3.102-3.485h-2.04l-2.11 2.27-2.041-2.27ZM7.314 2.878l-1.14 2.77h2.278l-1.138-2.77Zm16.82 1.529V3.14h4.164l1.818 2.024-1.898 2.035h-4.085V5.817h3.642v-1.41h-3.642Z" clip-rule="evenodd"/>
</svg>
