<svg xmlns="http://www.w3.org/2000/svg" width="22" height="20" fill="none" viewBox="0 0 22 20">
  <path fill="#000" fill-rule="evenodd" d="M.322.608h10.787c7.331 0 10.148 4.124 10.148 9.336 0 6.236-3.937 9.37-10.148 9.37H.322V.608ZM1.346 1.73v16.528h9.763c5.89 0 9.092-2.837 9.092-8.28 0-5.61-3.458-8.248-9.092-8.248H1.346Zm2.881 8.544c1.079 0 1.953-.9 1.953-2.012s-.874-2.013-1.953-2.013c-1.078 0-1.952.901-1.952 2.013 0 1.111.874 2.012 1.952 2.012Zm-1.568.858h3.137v5.74H2.659v-5.74Z" clip-rule="evenodd"/>
  <path fill="#D50072" fill-rule="evenodd" d="M16.647 6.414h.897v2.772h1.312c-.352-5.048-4.225-6.17-7.747-6.17H7.365v3.398h.544c1.025 0 1.633.693 1.633 1.848 0 1.155-.608 1.847-1.6 1.847h-.577v6.764h3.746c5.73 0 7.682-2.739 7.778-6.764h-2.24V6.414Zm-4.321 2.772v.923h-2.24V6.414h2.176v.924h-1.28v.429h1.216v.924h-1.184v.495h1.312Zm.384.923 1.088-3.695h1.28l1.09 3.695h-.93l-.191-.692h-1.185l-.192.692h-.96Zm1.418-1.65h-.01v.034l.01-.033Zm0 0h.63l-.287-1.022h-.032l-.31 1.023Zm-6.764.727V7.338h.544c.353 0 .737.1.737.924 0 .825-.352.924-.737.924h-.544Z" clip-rule="evenodd"/>
</svg>
