<svg xmlns="http://www.w3.org/2000/svg" width="30" height="19" fill="none" viewBox="0 0 30 19">
  <path fill="#ED0006" d="M17.677 9.608c0 4.938-3.957 8.94-8.839 8.94-4.88 0-8.838-4.002-8.838-8.94S3.957.667 8.838.667c4.882 0 8.839 4.003 8.839 8.94Z"/>
  <path fill="#0099DF" d="M29.143 9.608c0 4.938-3.957 8.94-8.839 8.94-4.88 0-8.838-4.002-8.838-8.94S15.423.667 20.304.667c4.882 0 8.839 4.003 8.839 8.94Z"/>
  <path fill="#6C6BBD" fill-rule="evenodd" d="M14.572 2.803a8.964 8.964 0 0 1 3.105 6.805 8.964 8.964 0 0 1-3.105 6.805 8.964 8.964 0 0 1-3.106-6.805 8.964 8.964 0 0 1 3.106-6.805Z" clip-rule="evenodd"/>
</svg>
