<svg xmlns="http://www.w3.org/2000/svg" width="15" height="19" fill="none" viewBox="0 0 15 19">
  <path fill="#28356A" fill-rule="evenodd" d="m4.486 17.598.294-1.932-.656-.016H.994L3.169 1.392a.19.19 0 0 1 .061-.112.174.174 0 0 1 .116-.044h5.279c1.752 0 2.962.377 3.593 1.12.296.35.485.714.576 1.115.095.422.097.925.004 1.539l-.007.044v.393l.296.174c.25.137.447.293.6.472.252.298.416.678.485 1.127.072.463.048 1.013-.069 1.636-.135.717-.353 1.34-.648 1.851a3.78 3.78 0 0 1-1.027 1.164 4.104 4.104 0 0 1-1.383.645 6.695 6.695 0 0 1-1.73.206h-.41c-.294 0-.579.11-.803.306-.225.2-.373.473-.419.772l-.03.174-.52 3.406-.024.125c-.007.04-.017.059-.033.072a.085.085 0 0 1-.054.02H4.486Z" clip-rule="evenodd"/>
  <path fill="#298FC2" fill-rule="evenodd" d="M13.367 5.1c-.015.104-.033.21-.053.32-.697 3.694-3.078 4.97-6.12 4.97H5.645a.76.76 0 0 0-.743.658L3.885 17.72a.405.405 0 0 0 .39.474h2.748a.668.668 0 0 0 .652-.576l.027-.144.517-3.393.034-.186a.668.668 0 0 1 .652-.577h.411c2.661 0 4.745-1.116 5.354-4.348.254-1.35.123-2.478-.55-3.27a2.635 2.635 0 0 0-.752-.6Z" clip-rule="evenodd"/>
  <path fill="#22284F" fill-rule="evenodd" d="M12.639 4.8a5.308 5.308 0 0 0-.677-.156 8.336 8.336 0 0 0-1.365-.103H6.459a.639.639 0 0 0-.285.067.68.68 0 0 0-.367.51l-.88 5.762-.025.168a.76.76 0 0 1 .743-.658h1.549c3.041 0 5.423-1.277 6.12-4.97.02-.11.037-.216.053-.32a3.638 3.638 0 0 0-.728-.3Z" clip-rule="evenodd"/>
  <path fill="#28356A" fill-rule="evenodd" d="M5.807 5.118a.678.678 0 0 1 .367-.51.639.639 0 0 1 .286-.066h4.137c.49 0 .948.033 1.365.103a5.33 5.33 0 0 1 .833.205c.206.07.397.154.573.25.207-1.366-.002-2.295-.716-3.137C11.865 1.037 10.444.64 8.626.64h-5.28a.762.762 0 0 0-.745.659L.403 15.704a.464.464 0 0 0 .447.542h3.259L5.807 5.118Z" clip-rule="evenodd"/>
</svg>
