<svg xmlns="http://www.w3.org/2000/svg" width="30" height="20" fill="none" viewBox="0 0 30 20">
  <path fill="#E21836" d="M6.024.667h7.145c.997 0 1.617.837 1.385 1.867l-3.327 14.7c-.234 1.027-1.233 1.865-2.23 1.865H1.852c-.996 0-1.618-.838-1.385-1.864l3.327-14.7C4.028 1.504 5.026.666 6.025.666Z"/>
  <path fill="#00447C" d="M12.574.667h8.216c.997 0 .547.836.313 1.866l-3.326 14.7c-.233 1.027-.16 1.865-1.16 1.865H8.401c-.999 0-1.617-.838-1.382-1.864l3.325-14.7c.236-1.03 1.232-1.867 2.23-1.867Z"/>
  <path fill="#007B84" d="M20.464.667h7.144c.999 0 1.619.836 1.384 1.866l-3.325 14.7c-.235 1.027-1.234 1.865-2.233 1.865h-7.14c-1 0-1.62-.838-1.385-1.864l3.326-14.7c.232-1.03 1.23-1.867 2.229-1.867Z"/>
  <path fill="#FEFEFE" d="M7.89 5.378c-.735.007-.952 0-1.021-.017-.027.13-.522 2.484-.524 2.486-.107.477-.184.816-.448 1.035a.784.784 0 0 1-.527.19c-.326 0-.516-.167-.548-.483l-.006-.109.1-.641s.52-2.145.613-2.429a.212.212 0 0 0 .007-.032c-1.012.009-1.192 0-1.204-.017-.007.023-.032.156-.032.156l-.531 2.418-.046.205-.088.67c0 .2.038.362.113.5.242.435.933.5 1.323.5.503 0 .976-.11 1.295-.31.553-.338.698-.864.827-1.332l.06-.24S7.79 5.7 7.88 5.41c.004-.016.005-.025.01-.032Zm1.824 1.797c-.13 0-.366.032-.578.14-.077.04-.15.087-.226.134l.069-.258-.038-.043c-.45.094-.55.106-.966.166l-.035.024c-.048.412-.09.722-.27 1.531-.068.298-.138.6-.21.897l.02.038c.426-.023.555-.023.925-.017l.03-.034c.047-.247.053-.306.157-.808.049-.238.151-.76.201-.947a.676.676 0 0 1 .271-.088c.207 0 .182.187.174.26a9.593 9.593 0 0 1-.162.882l-.051.225c-.036.167-.076.329-.112.494l.016.033c.42-.023.547-.023.906-.017l.042-.034c.065-.387.084-.49.198-1.054l.058-.26c.113-.506.169-.763.084-.973-.09-.234-.305-.29-.503-.29Zm2.037.53c-.223.045-.365.074-.507.093-.14.024-.277.045-.492.075l-.017.016-.016.013c-.022.165-.038.308-.068.476a8.878 8.878 0 0 1-.127.655 2.622 2.622 0 0 1-.102.369c-.027.076-.057.15-.112.364l.012.02.011.018c.202-.01.333-.017.469-.018.135-.005.276 0 .492 0l.02-.015.02-.018c.031-.192.036-.244.055-.338.019-.1.052-.24.132-.613.038-.175.08-.349.12-.527.04-.178.083-.353.124-.528l-.006-.022-.008-.02Zm.005-.715c-.203-.123-.559-.084-.798.086-.239.167-.266.404-.064.528.199.12.556.085.793-.087.239-.17.269-.405.069-.527Zm1.226 2.852c.41 0 .83-.116 1.146-.461.244-.28.355-.697.394-.868.126-.569.028-.834-.095-.996-.187-.247-.518-.326-.86-.326-.207 0-.698.021-1.082.385-.275.263-.402.62-.48.961-.077.348-.166.975.394 1.208.173.076.422.097.583.097Zm-.033-1.279c.095-.43.207-.792.492-.792.223 0 .239.269.14.701-.018.096-.1.452-.21.604-.077.112-.168.18-.269.18-.03 0-.208 0-.21-.272a1.903 1.903 0 0 1 .057-.421Zm2.598 1.224.032-.034c.046-.247.053-.306.154-.808.05-.238.154-.76.203-.947.093-.044.183-.088.272-.088.206 0 .181.187.173.26a8.695 8.695 0 0 1-.162.882l-.049.225c-.037.167-.078.329-.114.494l.016.033a9.63 9.63 0 0 1 .904-.017l.044-.034c.063-.387.08-.49.198-1.054l.057-.26c.113-.506.17-.763.086-.972-.092-.235-.31-.292-.504-.292-.13 0-.367.032-.578.14-.075.04-.15.087-.225.134l.065-.258-.035-.043c-.45.094-.553.106-.967.167l-.032.023a13.5 13.5 0 0 1-.27 1.531l-.21.897.02.038a10 10 0 0 1 .922-.017Zm3.094.017.185-.922s.134-.578.142-.6c0 0 .042-.06.084-.083h.062c.585 0 1.246 0 1.763-.392.353-.269.594-.666.7-1.149.029-.118.05-.259.05-.4a.858.858 0 0 0-.14-.51c-.265-.38-.79-.387-1.397-.39l-.3.003c-.776.01-1.088.007-1.216-.01-.01.059-.031.163-.031.163l-.278 1.33-.698 2.955c.679-.008.957-.008 1.074.005Zm.515-2.359.295-1.32.01-.067.004-.052.118.012.624.056c.241.096.34.343.271.666a.966.966 0 0 1-.488.662c-.196.102-.437.11-.685.11h-.16l.011-.067Zm1.842 1.143c-.078.343-.168.97.39 1.193.177.077.336.1.498.092.17-.01.33-.098.476-.224l-.04.156.025.034c.401-.018.525-.018.96-.014l.039-.031c.063-.384.123-.756.288-1.49.08-.352.16-.7.242-1.05l-.013-.038c-.448.085-.567.103-.999.166l-.032.028-.014.104a.62.62 0 0 0-.314-.266c-.191-.078-.642.022-1.029.385-.272.26-.402.614-.477.955Zm.942.02c.096-.422.206-.78.492-.78.18 0 .275.171.256.464l-.052.237c-.028.125-.06.25-.09.375a.925.925 0 0 1-.105.22.488.488 0 0 1-.349.173c-.028 0-.205 0-.21-.268-.002-.133.025-.27.058-.42Zm4.916-1.396-.035-.04a10.25 10.25 0 0 1-.931.163l-.03.031-.005.02-.001-.007c-.304.72-.295.565-.542 1.132l-.002-.07-.062-1.229-.04-.04c-.464.092-.475.107-.904.163l-.033.031c-.005.015-.005.031-.008.049l.003.006c.054.282.04.22.095.664.025.219.058.439.083.655.043.36.066.539.118 1.09-.29.492-.358.678-.637 1.11l.002.005-.197.32c-.022.033-.043.056-.071.066a.29.29 0 0 1-.129.019h-.109l-.162.554.555.01c.326-.002.531-.159.641-.37l.35-.615h-.006l.036-.043c.235-.52 2.02-3.674 2.02-3.674Zm-5.858 7.275h-.235l.871-2.967h.29l.091-.306.01.34c-.012.21.149.397.57.366h.488l.168-.572h-.183c-.106 0-.155-.027-.149-.086l-.009-.346h-.903v.002c-.292.007-1.164.03-1.34.078a1.563 1.563 0 0 0-.44.223l.09-.306h-.846l-.176.607-.883 3.012h-.171l-.168.568h1.683l-.057.189h.83l.055-.19h.232l.182-.612Zm-.69-2.364a3.882 3.882 0 0 0-.387.155l.224-.758h.671l-.162.553s-.207.012-.346.05Zm.013 1.083s-.211.027-.35.06a3.24 3.24 0 0 0-.393.177l.231-.79h.675l-.163.553Zm-.376 1.288h-.674l.196-.666h.67l-.192.666Zm1.621-1.84h.971l-.14.465h-.983l-.148.508h.86l-.65.945a.27.27 0 0 1-.133.113.379.379 0 0 1-.174.052h-.24l-.163.557h.624c.325 0 .517-.152.658-.352l.447-.63.096.64a.3.3 0 0 0 .16.217c.063.032.127.088.219.096.098.004.168.008.215.008h.307l.184-.624h-.12c-.07 0-.19-.012-.21-.034-.02-.027-.02-.07-.032-.133l-.097-.64h-.398l.174-.215h.982l.151-.508h-.909l.142-.465h.906l.168-.574h-2.701l-.166.574Zm-8.198 1.97.227-.776h.931l.17-.577h-.932l.143-.478h.91l.169-.559h-2.279l-.165.56h.518l-.138.477h-.52l-.172.586h.518l-.302 1.027c-.04.136.02.188.057.25a.25.25 0 0 0 .167.126.974.974 0 0 0 .239.034h1.05l.186-.64-.465.066c-.09 0-.339-.011-.312-.097Zm.107-3.715-.236.44a.507.507 0 0 1-.137.182c-.036.023-.107.033-.21.033h-.124l-.164.562h.409a.907.907 0 0 0 .42-.112c.077-.042.097-.018.157-.077l.138-.124h1.277l.17-.584h-.935l.163-.32h-.928Zm1.885 3.726c-.022-.033-.006-.09.027-.208l.35-1.189h1.24c.182-.002.312-.005.397-.01a.796.796 0 0 0 .299-.104.566.566 0 0 0 .217-.206c.054-.077.14-.243.214-.5l.439-1.505-1.288.008s-.397.06-.572.126c-.176.075-.428.282-.428.282l.117-.413h-.796l-1.114 3.804c-.04.148-.066.255-.072.32-.003.069.085.137.14.19.068.05.166.043.26.05.1.009.242.014.437.014h.611l.188-.653-.547.053a.143.143 0 0 1-.119-.06Zm.601-2.2h1.304l-.083.268c-.011.006-.04-.014-.172.003h-1.129l.08-.27Zm.262-.897h1.315l-.095.322s-.62-.006-.72.013a1.45 1.45 0 0 0-.69.318l.19-.653Zm.989 2.06a.143.143 0 0 1-.052.083c-.027.018-.07.024-.133.024h-.186l.01-.326h-.772l-.031 1.592c-.001.115.01.182.091.235.082.067.333.075.672.075h.484l.175-.596-.421.024-.14.008a.145.145 0 0 1-.058-.037c-.018-.018-.048-.007-.043-.122l.003-.408.442-.019c.239 0 .34-.08.428-.156.083-.073.11-.157.142-.27l.074-.362h-.608l-.077.255Z"/>
</svg>
