<svg xmlns="http://www.w3.org/2000/svg" width="33" height="12" fill="none" viewBox="0 0 33 12">
  <path fill="#172B85" fill-rule="evenodd" d="M8.334 11.144H5.587l-2.06-8.088c-.097-.372-.304-.7-.61-.855A8.764 8.764 0 0 0 .4 1.345v-.312h4.424c.61 0 1.069.468 1.145 1.011l1.068 5.834 2.745-6.845h2.67L8.335 11.144Zm5.645 0h-2.594l2.136-10.11h2.594l-2.136 10.11Zm5.491-7.31c.077-.544.535-.856 1.069-.856a4.713 4.713 0 0 1 2.517.467l.458-2.177A6.401 6.401 0 0 0 21.15.8c-2.518 0-4.35 1.4-4.35 3.344 0 1.479 1.298 2.255 2.214 2.723.99.467 1.372.778 1.296 1.244 0 .7-.763 1.011-1.525 1.011-.916 0-1.832-.233-2.67-.622l-.458 2.178c.916.388 1.907.544 2.822.544 2.823.077 4.577-1.322 4.577-3.422 0-2.645-3.586-2.8-3.586-3.966Zm12.663 7.31-2.06-10.11h-2.211a1.15 1.15 0 0 0-1.069.777l-3.813 9.333h2.67l.533-1.477h3.28l.306 1.477h2.364Zm-3.89-7.388.762 3.81H26.87l1.373-3.81Z" clip-rule="evenodd"/>
</svg>
