<svg xmlns="http://www.w3.org/2000/svg" width="22" height="22" fill="none" viewBox="0 0 22 22">
  <path stroke="#2C2929" stroke-linecap="round" stroke-linejoin="round" stroke-width="1.5" d="M1.25 5.75c0 8.284 6.716 15 15 15h2.25a2.25 2.25 0 0 0 2.25-2.25v-1.372c0-.516-.351-.966-.852-1.091l-4.423-1.106c-.44-.11-.902.055-1.173.417l-.97 1.293c-.282.376-.769.542-1.21.38a12.035 12.035 0 0 1-7.143-7.143c-.162-.441.004-.928.38-1.21l1.293-.97c.363-.271.527-.734.417-1.173L5.963 2.102a1.125 1.125 0 0 0-1.091-.852H3.5A2.25 2.25 0 0 0 1.25 3.5v2.25Z"/>
</svg>
