<svg xmlns="http://www.w3.org/2000/svg" width="19" height="15" fill="none" viewBox="0 0 19 15">
  <path fill="#2C2929" d="M10.402 2.155a.185.185 0 0 0-.16-.19h-.002a40.334 40.334 0 0 0-8.328 0 .187.187 0 0 0-.162.186v5.714h8.652v-5.71Zm-5.594 9.748a.52.52 0 1 0-.002 1.04.52.52 0 0 0 .002-1.04Zm9.517 0a.52.52 0 1 0-.001 1.039.52.52 0 0 0 .001-1.039Zm-2.423-.231h.55a2.016 2.016 0 0 1 3.746 0h.348a.19.19 0 0 0 .136-.054.125.125 0 0 0 .038-.1v-.001a14.396 14.396 0 0 0-2.584-7.393.992.992 0 0 0-.747-.408h-1.487v7.956ZM1.75 11.47a.202.202 0 0 0 .202.202h.982a2.019 2.019 0 0 1 3.301-.678c.195.195.345.427.446.678h3.721V9.365H1.75v2.105Zm10.152-9.254h1.545a2.49 2.49 0 0 1 1.913 1.042l.004.005a15.896 15.896 0 0 1 2.853 8.161l.002.183c-.041.897-.805 1.565-1.673 1.565h-.348a2.016 2.016 0 0 1-3.746 0H6.681a2.017 2.017 0 0 1-3.747 0h-.982A1.703 1.703 0 0 1 .25 11.47V2.155A1.686 1.686 0 0 1 1.754.474h.004a41.828 41.828 0 0 1 8.636 0l.16.024a1.686 1.686 0 0 1 1.348 1.657v.06Z"/>
</svg>
