<svg xmlns="http://www.w3.org/2000/svg" width="24" height="20" fill="none" viewBox="0 0 24 20">
  <path fill="#2C2929" d="M7.539 19.5c9.057 0 14.011-7.505 14.011-14.001 0-.21 0-.423-.009-.633A10.027 10.027 0 0 0 24 2.313a9.987 9.987 0 0 1-2.834.777A4.951 4.951 0 0 0 23.337.365a9.8 9.8 0 0 1-3.13 1.189 4.929 4.929 0 0 0-8.395 4.491A13.988 13.988 0 0 1 1.662.902a4.933 4.933 0 0 0 1.527 6.572A4.984 4.984 0 0 1 .96 6.862v.068a4.932 4.932 0 0 0 3.948 4.827c-.423.116-.86.175-1.298.173-.309 0-.617-.028-.92-.086a4.924 4.924 0 0 0 4.6 3.415 9.882 9.882 0 0 1-6.12 2.111A9.472 9.472 0 0 1 0 17.302 14.016 14.016 0 0 0 7.539 19.5Z"/>
</svg>
